<svg width="36" height="38" viewBox="0 0 36 38" fill="none" xmlns="http://www.w3.org/2000/svg">
<path d="M3.77914 35.9611L4.13362 38L5.52876 36.4776L7.56793 36.7685L6.55887 34.9658L7.46263 33.1085L5.44452 33.5166L3.96428 32.0771L3.72737 34.1328L1.90668 35.1025L3.78002 35.9628L3.77914 35.9611ZM0.994141 24.0183L1.15384 25.1202L1.92774 24.3224L3.02015 24.511L2.50422 23.5264L3.02015 22.5409L1.92774 22.7295L1.15384 21.9309L0.994141 23.0327L0 23.5264L0.994141 24.0183ZM19.681 33.2971L18.8492 33.625L18.1086 33.1226L18.163 34.0191L17.4593 34.5718L18.3236 34.7975L18.6307 35.6411L19.1098 34.883L20.0021 34.8521L19.4344 34.1592L19.6801 33.2971H19.681ZM14.8375 30.7998L13.9425 31.7659L12.6439 31.5738L13.2809 32.7285L12.6957 33.9098L13.9855 33.6577L14.9226 34.5815L15.0823 33.2707L16.2476 32.6598L15.056 32.1027L14.8366 30.8007L14.8375 30.7998ZM8.87619 28.8463C9.39213 29.1699 9.90455 29.3902 10.3608 29.4881C10.7925 29.5674 11.2734 29.6203 11.6112 29.1584L21.75 12.92H15.8887L7.40384 26.5094C7.13886 27.0172 7.39507 27.4262 7.65304 27.785C7.93821 28.1526 8.36026 28.5211 8.87619 28.8463ZM12.0525 20.7223C12.2763 21.0714 12.7018 21.4778 13.2581 21.8277C13.8127 22.1768 14.3619 22.3866 14.7726 22.436L10.8943 28.6524C10.8373 28.6639 10.6635 28.67 10.417 28.5942C10.1134 28.5131 9.72819 28.343 9.34211 28.0988C8.89988 27.8229 8.54539 27.502 8.34797 27.2437C8.27138 27.1524 8.21192 27.0479 8.17248 26.9352L12.0525 20.7223Z" fill="url(#paint0_linear_294_1600)"/>
<path d="M16.7577 26.6594C16.4135 27.1336 16.0342 27.5805 15.623 27.9962C13.6201 30.024 10.5988 30.637 6.56072 29.8318C5.76609 25.7399 6.37103 22.6782 8.37214 20.6487C8.79424 20.221 9.23684 19.8383 9.69141 19.5006C8.28993 18.8069 6.79224 18.334 5.25 18.098C5.74682 16.5191 6.6107 15.0842 7.76891 13.9142C9.50898 12.1457 11.8214 11.0743 14.2798 10.8977C15.3117 9.08898 16.5759 7.42708 18.0393 5.95545C23.7129 0.206283 31.015 -1.71241 34.3524 1.66955C37.6899 5.05151 35.7964 12.4527 30.1229 18.2001C28.6706 19.6831 27.0306 20.9641 25.2457 22.0098C25.0714 24.501 24.0141 26.8442 22.2688 28.6075C21.1148 29.7819 19.6987 30.6574 18.1402 31.16C17.9073 29.5972 17.4405 28.0795 16.756 26.6594H16.7577ZM27.0999 9.01878C27.4205 9.34372 27.8554 9.52626 28.3089 9.52626C28.7624 9.52626 29.1973 9.34372 29.518 9.01878C29.8386 8.69385 30.0188 8.25315 30.0188 7.79362C30.0188 7.3341 29.8386 6.89339 29.518 6.56846C29.1973 6.24353 28.7624 6.06098 28.3089 6.06098C27.8554 6.06098 27.4205 6.24353 27.0999 6.56846C26.7792 6.89339 26.5991 7.3341 26.5991 7.79362C26.5991 8.25315 26.7792 8.69385 27.0999 9.01878ZM13.8081 22.4878C13.6219 22.2973 13.3194 22.0081 12.9024 21.6167C12.1642 21.8765 11.2892 22.6107 10.486 23.4056C9.85204 24.0342 9.63672 25.0905 9.6316 26.7304C11.2482 26.7234 12.4 26.3494 12.9024 25.8541C13.7073 25.0593 14.4233 24.2662 14.6797 23.5164C14.4883 23.1804 14.0884 22.7718 13.8081 22.4878Z" fill="url(#paint1_linear_294_1600)"/>
<defs>
<linearGradient id="paint0_linear_294_1600" x1="-3.625" y1="41.0096" x2="25.6625" y2="15.8977" gradientUnits="userSpaceOnUse">
<stop stop-color="white"/>
<stop offset="0.286458" stop-color="#E3A952"/>
<stop offset="0.598958" stop-color="#E89D9D"/>
<stop offset="1" stop-color="#BBE641"/>
</linearGradient>
<linearGradient id="paint1_linear_294_1600" x1="41.125" y1="-3.7392" x2="4.31727" y2="32.1738" gradientUnits="userSpaceOnUse">
<stop stop-color="white"/>
<stop offset="0.286458" stop-color="#E3A952"/>
<stop offset="0.598958" stop-color="#E89D9D"/>
<stop offset="1" stop-color="#BBE641"/>
</linearGradient>
</defs>
</svg>
